<?xml version="1.0" encoding="UTF-8" standalone="no"?>
<!-- Created with Inkscape (http://www.inkscape.org/) -->

<svg
   xmlns:dc="http://purl.org/dc/elements/1.1/"
   xmlns:cc="http://creativecommons.org/ns#"
   xmlns:rdf="http://www.w3.org/1999/02/22-rdf-syntax-ns#"
   xmlns:svg="http://www.w3.org/2000/svg"
   xmlns="http://www.w3.org/2000/svg"
   xmlns:sodipodi="http://sodipodi.sourceforge.net/DTD/sodipodi-0.dtd"
   xmlns:inkscape="http://www.inkscape.org/namespaces/inkscape"
   width="173.97762mm"
   height="22.289389mm"
   viewBox="0 0 173.97762 22.289389"
   version="1.1"
   id="svg8"
   inkscape:export-filename="/home/jon/provisionOps.png"
   inkscape:export-xdpi="96"
   inkscape:export-ydpi="96"
   inkscape:version="0.92.4 (33fec40, 2019-01-16)"
   sodipodi:docname="provision-ops-logo.svg">
  <defs
     id="defs2" />
  <sodipodi:namedview
     id="base"
     pagecolor="#ffffff"
     bordercolor="#666666"
     borderopacity="1.0"
     inkscape:pageopacity="1"
     inkscape:pageshadow="2"
     inkscape:zoom="1.4"
     inkscape:cx="382.42725"
     inkscape:cy="25.888157"
     inkscape:document-units="mm"
     inkscape:current-layer="layer1"
     showgrid="false"
     inkscape:snap-text-baseline="true"
     fit-margin-top="0"
     fit-margin-left="0"
     fit-margin-right="0"
     fit-margin-bottom="0"
     inkscape:window-width="1920"
     inkscape:window-height="1016"
     inkscape:window-x="0"
     inkscape:window-y="27"
     inkscape:window-maximized="1" />
  <metadata
     id="metadata5">
    <rdf:RDF>
      <cc:Work
         rdf:about="">
        <dc:format>image/svg+xml</dc:format>
        <dc:type
           rdf:resource="http://purl.org/dc/dcmitype/StillImage" />
        <dc:title></dc:title>
      </cc:Work>
    </rdf:RDF>
  </metadata>
  <g
     inkscape:label="Layer 1"
     inkscape:groupmode="layer"
     id="layer1"
     transform="translate(-19.994387,-92.619914)">
    <text
       xml:space="preserve"
       style="font-style:normal;font-variant:normal;font-weight:bold;font-stretch:normal;font-size:21.71629333px;line-height:1.25;font-family:Comfortaa;-inkscape-font-specification:'Comfortaa, Bold';font-variant-ligatures:normal;font-variant-caps:normal;font-variant-numeric:normal;font-feature-settings:normal;text-align:start;letter-spacing:0px;word-spacing:0px;writing-mode:lr-tb;text-anchor:start;fill:#000000;fill-opacity:1;stroke:none;stroke-width:0.5429107"
       x="44.119057"
       y="109.82769"
       id="text3715"><tspan
         sodipodi:role="line"
         id="tspan3713"
         x="44.119057"
         y="109.82769"
         style="font-style:normal;font-variant:normal;font-weight:bold;font-stretch:normal;font-size:21.71629333px;font-family:Comfortaa;-inkscape-font-specification:'Comfortaa, Bold';font-variant-ligatures:normal;font-variant-caps:normal;font-variant-numeric:normal;font-feature-settings:normal;text-align:start;writing-mode:lr-tb;text-anchor:start;stroke-width:0.5429107">ProvisionOps</tspan></text>
    <g
       id="g5114"
       transform="matrix(0.76639584,0,0,0.76639584,-18.887362,13.885755)">
      <path
         style="fill:#fde6b4;stroke-width:0.2113084"
         d="m 54.771813,124.21786 c -0.580492,-0.24469 -1.299984,-1.05551 -1.570737,-1.7701 -0.132847,-0.35063 -0.226483,-2.38944 -0.228061,-4.96575 l -0.0026,-4.37089 -0.631249,-1.24481 c -1.523377,-3.00405 -0.292823,-5.97136 3.153581,-7.6044 l 1.392227,-0.65969 h 7.29014 7.29014 l 1.392227,0.65969 c 3.446404,1.63304 4.676958,4.60035 3.153582,7.6044 l -0.631251,1.24481 -0.0026,4.39143 c -0.0029,4.75716 -0.104661,5.31067 -1.154485,6.27964 l -0.57235,0.52828 -9.227898,0.0428 c -5.075344,0.0235 -9.418075,-0.0374 -9.650514,-0.13538 z"
         id="path5128"
         inkscape:connector-curvature="0" />
      <path
         style="fill:#d79c80;stroke-width:0.23151042"
         d="m 53.569502,124.71337 c -1.290022,-0.78651 -1.433009,-1.47584 -1.433009,-6.90844 v -4.84564 l -0.694531,-1.32033 c -0.783948,-1.49031 -0.929762,-3.27181 -0.376227,-4.59662 0.451929,-1.08162 1.656795,-2.38137 2.86258,-3.08801 1.828184,-1.07138 3.086053,-1.22131 10.24672,-1.22131 7.160667,0 8.418536,0.14993 10.24672,1.22131 3.020684,1.77025 4.002022,4.80329 2.486353,7.68463 l -0.694531,1.32033 v 4.84564 c 0,5.4326 -0.142986,6.12193 -1.433008,6.90844 -0.736902,0.44927 -1.144321,0.46722 -10.605534,0.46722 -9.461214,0 -9.868632,-0.0179 -10.605533,-0.46722 z m 10.774473,-1.44579 c 1.342563,-1.26568 0.687322,-3.9676 0.711846,-5.74175 l 0.0705,-5.10031 0.681909,-1.07526 c 0.547768,-0.86374 0.681908,-1.33285 0.681908,-2.38476 0,-1.54263 -0.514312,-2.45692 -2.034205,-3.61619 -1.196899,-0.91291 -2.170272,-1.21731 -4.448087,-1.39107 -3.784576,-0.2887 -6.849886,1.10971 -7.781903,3.55018 -0.508401,1.33124 -0.328461,2.84744 0.460721,3.88211 l 0.60738,0.79631 v 4.72687 c 0,5.2377 0.140515,5.99086 1.245676,6.67689 0.656706,0.40765 1.104695,0.44239 4.942536,0.38334 1.703833,-0.19027 4.017415,0.3744 4.861719,-0.70636 z"
         id="path5118"
         inkscape:connector-curvature="0"
         sodipodi:nodetypes="csccccscscscsccccsscssccsccc" />
    </g>
  </g>
</svg>
